<?xml version="1.0" standalone="no"?>
<!DOCTYPE svg PUBLIC "-//W3C//DTD SVG 20010904//EN"
 "http://www.w3.org/TR/2001/REC-SVG-20010904/DTD/svg10.dtd">
<svg version="1.0" xmlns="http://www.w3.org/2000/svg"
 width="1204.000000pt" height="1280.000000pt" viewBox="0 0 1204.000000 1280.000000"
 preserveAspectRatio="xMidYMid meet">
<metadata>
Created by potrace 1.15, written by Peter Selinger 2001-2017
</metadata>
<g transform="translate(0.000000,1280.000000) scale(0.100000,-0.100000)"
fill="#607d8b" stroke="none">
<path d="M5604 12767 c-20 -32 -20 -37 -7 -159 l14 -127 -47 -123 c-66 -173
-103 -252 -185 -392 -39 -66 -88 -150 -109 -186 -41 -70 -135 -241 -208 -380
-209 -395 -526 -814 -809 -1071 -391 -354 -604 -511 -886 -650 -137 -68 -174
-82 -237 -90 -40 -5 -78 -13 -84 -19 -13 -13 27 -56 60 -64 13 -4 66 -34 117
-69 99 -65 136 -93 412 -306 94 -72 205 -156 248 -187 42 -30 77 -60 77 -65 0
-13 -6 -12 -48 10 -20 11 -154 74 -297 142 -143 67 -310 146 -371 175 -61 30
-115 54 -119 54 -5 0 -22 11 -39 23 -17 13 -44 27 -59 31 -16 4 -117 49 -226
101 -109 52 -208 95 -220 95 -33 0 -25 -25 21 -63 41 -34 41 -35 46 -113 2
-44 -1 -132 -7 -197 -9 -108 -76 -469 -121 -662 -10 -44 -28 -129 -40 -190
-11 -60 -27 -130 -34 -155 -8 -25 -46 -182 -86 -350 -39 -168 -84 -345 -100
-395 -16 -49 -40 -135 -55 -190 -15 -55 -53 -192 -85 -305 -32 -113 -73 -261
-90 -328 -33 -134 -98 -321 -192 -557 -63 -157 -188 -498 -188 -512 0 -4 -7
-21 -16 -38 -38 -70 -122 -265 -201 -465 -46 -118 -97 -244 -113 -280 -16 -36
-79 -184 -140 -329 -112 -265 -167 -384 -201 -432 -10 -14 -33 -55 -52 -90
-133 -254 -238 -438 -298 -524 -39 -55 -125 -189 -192 -297 -196 -317 -201
-325 -227 -351 -14 -14 -35 -39 -48 -56 -21 -28 -29 -31 -76 -31 -62 0 -91
-17 -82 -47 4 -12 14 -24 24 -28 9 -4 89 -9 177 -12 88 -2 210 -10 271 -18 62
-8 230 -19 375 -25 231 -9 735 -41 1089 -69 108 -9 116 -11 135 -36 59 -78
301 -554 335 -660 18 -56 55 -129 74 -144 9 -8 16 -29 16 -48 0 -18 9 -51 20
-73 11 -22 20 -58 20 -80 0 -71 59 -150 112 -150 20 0 132 -73 186 -121 24
-21 83 -58 131 -83 141 -73 143 -89 12 -101 -73 -6 -315 -8 -376 -3 -24 3 -31
-1 -33 -19 -3 -18 3 -23 35 -30 53 -11 399 -7 442 5 20 6 81 21 136 33 55 12
138 34 185 49 l85 27 125 -23 c69 -13 167 -28 219 -34 51 -6 97 -13 101 -15
13 -8 332 -6 790 4 406 10 505 16 867 57 130 15 256 11 280 -8 16 -13 365 -40
448 -35 39 3 113 15 165 27 114 28 114 28 405 6 276 -21 408 -17 559 19 60 14
141 27 180 28 70 2 72 1 109 -35 45 -45 223 -134 297 -148 68 -13 182 -12 240
1 25 6 68 14 97 19 29 5 66 19 83 32 31 22 31 22 78 5 26 -10 108 -38 182 -62
74 -24 167 -55 205 -69 39 -14 113 -30 165 -36 52 -6 124 -14 160 -19 36 -5
157 -8 270 -7 l205 2 15 29 c8 17 16 32 18 35 8 12 22 -29 22 -66 0 -57 0 -57
-162 -93 -66 -15 -191 -13 -272 4 -38 8 -71 13 -74 11 -10 -11 65 -37 135 -47
86 -12 96 -16 87 -31 -5 -7 -39 -9 -105 -4 -56 3 -99 2 -99 -3 0 -16 44 -21
205 -21 161 0 281 16 312 42 10 8 13 23 9 48 l-5 35 107 71 c59 40 139 91 177
114 39 24 88 54 110 68 22 14 56 35 75 47 19 12 100 64 180 117 174 114 195
127 285 174 39 20 85 47 102 60 18 14 77 49 130 78 146 79 194 106 233 131 19
12 82 50 140 83 138 80 221 130 282 170 27 17 52 32 55 32 3 0 19 10 36 22 16
12 37 22 46 23 9 1 30 5 48 9 21 5 41 2 62 -8 20 -11 32 -12 36 -5 4 5 18 14
31 19 13 5 28 21 34 34 5 15 22 28 44 36 52 17 59 30 35 69 -21 35 -18 34
-103 19 -14 -2 -25 8 -39 34 -11 20 -36 57 -57 81 -20 25 -116 183 -214 353
-220 380 -309 534 -349 599 -16 28 -77 133 -135 235 -58 102 -126 219 -152
260 -26 41 -67 109 -90 150 -24 41 -84 145 -135 230 -50 85 -152 256 -225 380
-73 124 -152 257 -175 295 -23 39 -95 160 -160 270 -151 257 -568 953 -614
1027 -20 31 -83 139 -141 238 -58 100 -125 212 -150 248 -24 37 -63 101 -86
142 -22 41 -77 134 -120 205 -158 258 -294 484 -294 489 0 6 -260 439 -310
517 -22 34 -40 67 -40 72 0 6 -15 33 -34 61 -18 28 -53 85 -76 126 -24 41 -59
100 -78 130 -19 30 -60 100 -92 155 -99 173 -352 597 -396 665 -23 36 -55 90
-71 120 -17 30 -45 80 -63 110 -18 30 -66 114 -108 185 -41 72 -98 168 -126
215 -29 47 -72 119 -96 160 -24 41 -81 137 -126 212 -46 75 -110 183 -142 240
-66 115 -162 280 -372 633 -79 132 -169 285 -200 340 -49 87 -154 261 -257
430 -83 136 -311 519 -350 590 -25 44 -62 109 -83 145 -21 36 -41 85 -44 110
-4 25 -16 110 -27 190 -10 80 -22 153 -25 163 -8 27 -37 19 -60 -16z m43 -578
c7 -79 19 -171 28 -204 8 -33 21 -157 30 -275 8 -118 27 -370 41 -560 14 -190
30 -417 34 -505 5 -88 16 -248 25 -355 8 -107 20 -262 25 -345 6 -82 21 -289
35 -460 13 -170 29 -377 35 -460 6 -82 15 -190 20 -240 5 -49 12 -139 15 -200
4 -60 13 -186 21 -280 8 -93 19 -237 24 -320 6 -82 15 -190 20 -240 5 -49 19
-214 30 -365 11 -151 22 -303 25 -337 4 -49 3 -63 -8 -63 -7 0 -46 37 -85 83
-39 46 -115 127 -169 179 -54 52 -165 166 -248 252 -160 167 -428 427 -746
721 -107 99 -250 234 -319 301 -69 67 -181 163 -250 214 -69 51 -150 114 -180
140 -45 38 -245 187 -336 250 -12 8 -47 35 -79 60 -31 25 -73 58 -93 73 -20
16 -71 57 -112 92 -42 36 -107 86 -145 112 -39 27 -70 55 -70 63 0 8 31 31 70
50 39 20 122 62 185 94 63 32 138 75 165 96 28 20 79 58 115 83 193 139 240
177 425 342 99 88 226 207 284 265 110 111 112 112 44 13 -24 -35 -43 -75 -43
-88 0 -15 -7 -28 -17 -32 -16 -5 -106 -85 -225 -200 -24 -22 -59 -60 -78 -83
-19 -23 -59 -59 -90 -80 -68 -46 -86 -66 -68 -73 7 -2 22 -1 34 3 22 9 279
242 373 339 64 66 151 197 151 227 0 13 8 24 20 27 28 7 80 94 80 134 0 36 22
77 55 104 48 40 326 455 346 517 6 21 19 46 29 57 65 76 487 857 525 973 9 30
22 51 28 49 8 -2 17 -58 24 -148z m149 -26 c15 -27 176 -298 359 -603 183
-305 381 -638 440 -740 59 -102 158 -270 220 -375 62 -104 165 -280 230 -390
65 -110 148 -249 185 -310 84 -137 357 -602 417 -710 25 -44 55 -93 68 -110
12 -16 46 -73 75 -125 29 -52 66 -114 82 -137 15 -23 28 -44 28 -46 0 -6 207
-357 273 -462 31 -49 71 -117 88 -150 17 -33 79 -141 138 -240 59 -99 153
-256 208 -350 212 -358 334 -563 377 -630 25 -38 64 -104 87 -145 54 -95 192
-323 250 -415 25 -38 89 -146 143 -240 54 -93 120 -205 147 -248 27 -43 49
-80 49 -83 0 -2 17 -30 37 -61 20 -32 51 -85 68 -118 17 -33 54 -96 81 -140
65 -103 163 -266 228 -380 29 -50 61 -104 73 -120 29 -41 186 -305 301 -505
52 -91 102 -176 112 -190 9 -14 46 -77 80 -140 35 -63 88 -153 119 -200 30
-47 106 -175 169 -285 63 -110 142 -247 176 -305 35 -58 98 -166 141 -240 43
-74 106 -182 140 -240 34 -58 88 -152 120 -210 32 -58 70 -123 85 -145 15 -22
60 -97 99 -167 40 -71 88 -148 107 -173 19 -25 34 -50 34 -56 0 -27 -40 4
-114 87 -384 433 -472 532 -545 609 -36 39 -127 138 -201 220 -74 82 -169 186
-210 230 -41 45 -104 115 -139 156 -35 41 -112 126 -171 189 -59 63 -156 169
-215 235 -59 66 -167 183 -239 260 -72 77 -165 178 -206 225 -41 47 -158 173
-260 280 -186 197 -339 364 -374 407 -18 23 -18 25 0 37 17 13 17 17 -9 82
-31 77 -82 164 -97 164 -19 0 -10 -40 20 -93 37 -65 63 -137 49 -137 -5 0 -28
19 -50 43 -82 87 -116 142 -144 227 -33 101 -35 104 -47 92 -5 -5 -5 -25 1
-50 5 -23 6 -42 3 -42 -4 0 -35 28 -69 62 -51 51 -63 68 -63 94 0 18 -15 81
-34 141 -18 59 -37 123 -41 140 -8 37 -22 51 -31 29 -7 -17 39 -191 67 -255
11 -24 17 -46 14 -49 -7 -7 -86 78 -125 134 -39 55 -116 280 -155 448 -4 20
-9 26 -17 18 -13 -13 13 -145 48 -243 14 -39 23 -75 21 -82 -3 -7 -31 15 -65
50 -72 75 -85 106 -137 328 -54 233 -59 248 -74 253 -19 6 -7 -68 40 -256 22
-85 39 -159 39 -165 -1 -18 -99 92 -121 135 -30 59 -98 311 -124 465 -14 78
-25 145 -25 148 0 3 -5 5 -11 5 -8 0 -10 -24 -5 -82 9 -116 21 -174 68 -326
22 -73 37 -136 34 -140 -12 -11 -95 89 -123 146 -24 50 -46 150 -118 532 -29
149 -37 172 -55 154 -11 -11 27 -240 71 -424 24 -105 38 -190 30 -190 -3 0
-34 28 -68 62 -53 53 -63 68 -63 98 0 19 -10 55 -21 80 -11 25 -24 74 -29 110
-4 36 -13 106 -20 155 -35 281 -43 334 -52 378 -7 35 -13 46 -21 38 -15 -15
-11 -61 28 -311 19 -124 38 -262 42 -308 5 -74 4 -82 -11 -76 -9 3 -16 11 -16
16 0 5 -35 44 -78 86 -43 42 -123 129 -177 192 -54 63 -116 133 -136 155 -71
75 -82 94 -69 111 20 23 6 157 -38 374 -54 264 -60 297 -82 434 -20 122 -30
155 -30 94 0 -54 23 -205 90 -598 17 -96 30 -204 30 -240 l0 -64 -78 83 -78
84 -18 171 c-9 94 -28 219 -41 278 -14 59 -29 143 -34 185 -6 43 -21 125 -35
183 -14 58 -35 176 -46 263 -14 103 -33 197 -55 268 -19 60 -53 187 -76 282
-23 94 -52 210 -66 257 -37 133 -72 260 -87 320 -24 99 -84 314 -96 345 -6 16
-18 61 -26 100 -23 111 -109 413 -179 625 -35 107 -68 215 -75 240 -19 80 -52
180 -147 455 -52 149 -120 353 -152 455 -33 102 -80 244 -105 316 -69 198 -75
311 -10 197z m55 -465 c6 -29 47 -156 91 -283 120 -352 333 -1016 368 -1145
16 -63 42 -155 56 -205 14 -49 42 -155 64 -235 49 -184 144 -534 170 -625 10
-38 44 -169 74 -290 30 -121 70 -274 89 -340 53 -185 54 -197 18 -227 -16 -14
-81 -52 -143 -83 -62 -31 -132 -70 -155 -86 -25 -17 -44 -25 -48 -19 -3 6 -15
63 -25 128 -30 192 -148 882 -164 957 -8 39 -24 126 -36 195 -38 226 -71 412
-101 570 -16 85 -36 196 -43 245 -18 111 -35 216 -75 450 -56 331 -150 909
-156 960 -4 28 -9 58 -12 68 -2 9 0 17 5 17 6 0 16 -24 23 -52z m-41 -506 c0
-26 5 -66 10 -90 6 -23 19 -104 30 -180 11 -75 31 -204 45 -287 14 -82 30
-202 36 -265 6 -63 21 -173 34 -245 13 -71 26 -155 30 -185 4 -30 17 -116 30
-190 14 -74 31 -184 40 -245 8 -60 24 -162 35 -225 11 -63 27 -167 35 -230 8
-63 21 -151 30 -195 8 -44 15 -83 15 -86 0 -4 -14 -12 -30 -19 -17 -7 -36 -24
-43 -39 -6 -14 -27 -35 -44 -46 -37 -23 -41 -41 -13 -69 12 -14 28 -64 45
-141 14 -66 32 -149 40 -185 25 -115 18 -226 -17 -275 -12 -18 16 -59 54 -77
30 -15 38 -25 44 -55 3 -21 13 -69 21 -108 8 -38 28 -149 43 -245 16 -96 34
-193 39 -215 6 -22 18 -94 27 -160 9 -66 31 -208 49 -315 32 -184 127 -763
181 -1095 26 -164 93 -605 118 -780 71 -487 88 -601 100 -675 8 -47 26 -168
41 -270 14 -102 38 -252 52 -335 13 -82 29 -181 33 -220 5 -38 16 -108 25
-155 8 -47 28 -175 45 -285 16 -110 35 -231 40 -270 6 -38 22 -144 36 -235 42
-275 62 -408 89 -573 30 -189 29 -177 7 -177 -49 0 -78 95 -46 149 15 26 16
35 6 49 -7 9 -15 25 -18 34 -8 22 -16 25 -162 42 -67 9 -131 20 -141 25 -17 9
-54 67 -123 191 -14 25 -71 133 -126 241 l-100 197 -12 168 c-6 93 -15 198
-20 234 -5 36 -14 139 -20 230 -5 91 -17 237 -25 325 -22 234 -65 748 -76 915
-9 150 -19 267 -44 575 -8 99 -20 243 -25 320 -6 77 -15 185 -20 240 -5 55
-12 150 -15 210 -3 61 -13 180 -21 265 -8 85 -19 223 -25 305 -5 83 -23 296
-39 475 -16 179 -34 397 -40 485 -12 186 -27 385 -40 540 -6 61 -15 195 -21
300 -6 104 -13 193 -16 198 -2 4 -11 108 -19 230 -7 122 -21 301 -29 397 -9
96 -20 243 -25 325 -5 83 -16 242 -24 355 -9 113 -24 336 -36 495 -11 160 -22
306 -25 325 -2 19 -11 136 -20 260 -8 124 -17 265 -21 314 -4 62 -2 86 5 82 6
-4 11 -28 11 -54z m-2874 -1923 c82 -39 253 -122 381 -185 127 -63 235 -114
239 -114 4 0 15 -6 23 -13 9 -7 50 -28 91 -47 92 -43 399 -207 420 -225 8 -7
26 -16 40 -20 14 -4 76 -32 137 -62 125 -61 83 -24 756 -662 360 -342 787
-779 787 -805 -1 -19 -252 -282 -360 -377 -58 -50 -264 -246 -458 -436 -194
-189 -358 -343 -364 -341 -6 2 -20 31 -32 63 -12 33 -62 136 -111 229 -50 93
-108 203 -130 245 -22 42 -50 92 -61 111 -12 19 -54 97 -93 173 -39 76 -86
162 -105 190 -39 61 -122 205 -150 261 l-19 38 27 55 c32 67 28 81 -8 24 -15
-23 -30 -41 -34 -41 -7 0 -128 221 -220 403 l-55 108 23 102 c26 120 28 141
15 145 -5 2 -20 -38 -32 -88 -25 -100 -30 -113 -44 -105 -15 10 -83 117 -96
153 -7 18 -38 76 -70 130 -56 93 -58 100 -63 182 -6 80 -7 82 -14 42 -5 -24
-14 -41 -20 -39 -10 3 -76 119 -152 267 -18 36 -40 76 -48 90 -8 14 -34 59
-57 100 -23 41 -52 86 -64 100 -13 14 -43 61 -68 105 -25 44 -75 127 -111 185
-63 100 -76 130 -58 130 5 0 76 -32 158 -71z m-185 -11 c48 -95 103 -188 209
-353 145 -224 170 -273 170 -330 0 -27 -13 -119 -30 -204 -16 -86 -36 -201
-44 -256 -9 -55 -27 -156 -42 -225 -34 -159 -38 -190 -25 -170 13 21 98 410
106 485 5 49 27 183 51 313 3 13 10 22 17 19 7 -2 40 -56 73 -120 34 -65 67
-124 74 -132 24 -29 4 -219 -36 -356 -9 -30 -24 -92 -34 -139 -10 -47 -32
-136 -49 -199 -18 -63 -30 -121 -28 -130 8 -36 123 375 161 578 14 74 28 136
30 139 6 5 10 -2 147 -235 75 -126 89 -156 83 -180 -12 -52 -135 -447 -190
-608 -30 -89 -54 -168 -54 -177 0 -9 -29 -88 -65 -176 -65 -163 -86 -225 -68
-207 6 6 23 44 38 85 15 41 38 95 51 120 32 66 230 648 274 806 10 39 24 83
30 99 10 26 11 27 29 11 11 -10 56 -90 101 -179 45 -89 98 -190 117 -224 38
-69 38 -71 -7 -168 -49 -105 -271 -565 -337 -699 -35 -71 -62 -131 -59 -133 6
-6 55 80 108 189 26 53 51 99 57 102 5 4 19 32 31 64 12 31 45 107 74 167 29
61 79 167 112 237 32 70 64 128 71 128 7 0 23 -19 36 -42 14 -24 52 -91 86
-150 33 -60 61 -118 61 -130 0 -26 -240 -482 -312 -593 -47 -73 -167 -282
-173 -301 -6 -18 -5 -18 10 1 62 75 282 442 385 640 94 181 104 198 117 202 7
3 35 -39 62 -94 28 -54 89 -168 136 -253 122 -220 276 -532 273 -550 -5 -28
-510 -502 -798 -750 -74 -63 -145 -126 -159 -140 -15 -14 -55 -48 -91 -75 -36
-27 -184 -145 -330 -261 -146 -117 -308 -247 -360 -289 -52 -42 -142 -115
-199 -163 -103 -87 -137 -114 -287 -227 -159 -119 -258 -186 -273 -183 -9 2
-24 -9 -33 -24 -10 -15 -37 -39 -60 -54 -24 -15 -62 -43 -84 -63 -23 -20 -61
-46 -85 -58 l-44 -23 -11 37 c-12 41 -14 39 -38 -34 -20 -59 -67 -107 -178
-179 -75 -50 -84 -52 -93 -24 -10 31 -23 24 -37 -21 -8 -27 -26 -53 -55 -78
-63 -52 -165 -113 -175 -103 -5 5 0 33 12 62 11 29 19 55 16 58 -5 4 -47 -83
-60 -126 -8 -24 -56 -57 -271 -184 -206 -123 -225 -132 -257 -130 -21 2 -31
-4 -42 -27 -16 -29 -62 -62 -176 -124 -81 -44 -110 -53 -110 -35 0 12 55 101
98 158 10 14 38 61 62 105 39 72 167 268 270 415 21 30 58 93 82 140 129 247
185 351 220 408 44 71 68 125 198 441 51 124 96 232 101 240 26 50 193 465
219 546 7 21 35 87 62 145 59 124 133 319 144 374 4 22 15 54 26 72 21 36 42
87 134 329 91 238 140 385 169 511 14 60 48 186 75 279 28 94 71 244 96 335
24 91 51 188 59 215 8 28 26 97 40 155 14 58 35 137 45 175 35 128 82 319 95
385 42 219 139 686 155 747 22 81 40 218 40 309 0 54 15 124 26 124 2 0 18
-28 35 -62z m3449 -574 c0 -9 -7 -14 -17 -12 -25 5 -28 28 -4 28 12 0 21 -6
21 -16z m24 -161 c11 -52 49 -308 53 -358 7 -73 -11 -47 -41 60 -34 124 -60
269 -52 300 8 33 33 32 40 -2z m629 -410 c21 -98 48 -241 61 -318 14 -77 31
-176 40 -220 29 -157 44 -260 37 -268 -11 -12 -300 338 -437 528 -36 50 -79
107 -96 127 -30 37 -31 39 -18 80 7 24 14 49 16 55 5 20 111 84 184 112 36 13
85 37 109 53 25 15 50 28 56 28 7 0 27 -74 48 -177z m-533 -27 c0 -8 -7 -17
-16 -20 -23 -9 -24 -8 -24 14 0 13 7 20 20 20 11 0 20 -6 20 -14z m161 -238
c57 -79 128 -172 159 -208 30 -36 91 -110 135 -164 44 -55 152 -181 239 -280
88 -100 210 -237 270 -306 130 -147 164 -185 271 -300 254 -272 322 -347 378
-413 34 -41 112 -128 172 -193 61 -66 169 -187 240 -269 72 -82 150 -172 176
-200 25 -27 75 -87 112 -131 37 -45 82 -95 99 -111 37 -33 101 -101 274 -294
67 -74 209 -230 315 -347 107 -117 225 -247 263 -290 37 -42 132 -149 210
-237 77 -88 188 -209 246 -270 161 -169 688 -745 761 -832 24 -29 89 -101 144
-161 91 -98 232 -254 539 -596 60 -66 145 -159 188 -204 105 -110 102 -113
-82 -94 -52 6 -214 13 -360 17 -146 3 -330 11 -410 16 -191 14 -2113 13 -2240
0 -279 -29 -469 -54 -585 -76 -71 -13 -150 -27 -175 -30 -25 -4 -134 -25 -242
-46 -109 -21 -209 -39 -222 -39 l-24 0 -6 143 c-4 78 -6 210 -5 292 1 90 -4
168 -11 195 -13 49 -14 56 -24 394 -4 126 -9 232 -11 236 -2 4 -13 99 -25 211
-11 112 -23 211 -25 220 -9 27 -53 397 -70 574 -16 177 -26 256 -75 615 -46
331 -48 347 -75 475 -13 66 -42 217 -65 335 -22 118 -43 224 -46 235 -2 11
-22 108 -44 215 -57 280 -79 371 -117 492 -18 59 -33 116 -33 125 0 21 -37
167 -75 303 -15 52 -33 124 -40 160 -14 79 -42 179 -100 365 -24 77 -49 165
-55 195 -7 30 -20 80 -31 110 -20 60 -49 213 -49 265 0 31 6 45 20 45 4 0 54
-64 111 -142z m-466 -933 l54 -70 11 -105 c6 -58 15 -166 20 -240 5 -74 16
-218 25 -320 8 -102 24 -302 35 -445 44 -571 52 -681 75 -965 13 -162 29 -360
35 -440 18 -239 30 -399 40 -515 5 -60 12 -139 15 -175 2 -36 14 -173 25 -305
31 -367 42 -526 36 -533 -9 -8 -31 25 -71 108 -98 204 -213 400 -234 400 -5 0
-13 10 -17 23 -3 12 -33 69 -66 125 -33 57 -89 162 -124 233 l-64 130 29 127
c17 70 37 174 46 232 22 151 52 328 77 456 21 108 19 159 -3 137 -6 -6 -21
-86 -35 -179 -13 -93 -28 -189 -34 -214 -42 -187 -49 -231 -44 -257 6 -32 -30
-231 -45 -246 -5 -5 -28 28 -54 75 -75 140 -87 166 -87 197 0 23 -4 29 -15 25
-8 -3 -17 0 -19 7 -2 8 -6 21 -9 29 -9 29 -6 35 18 32 29 -4 34 18 10 38 -12
10 -22 10 -39 2 -19 -9 -27 -7 -38 6 -22 25 -78 128 -78 141 0 7 -11 27 -23
44 -13 18 -42 66 -65 108 l-40 75 14 70 c21 98 99 607 124 809 28 220 37 429
21 440 -7 4 -15 4 -18 1 -4 -3 -17 -90 -29 -194 -36 -296 -63 -504 -89 -687
-14 -93 -31 -210 -37 -258 -7 -48 -17 -89 -22 -90 -6 -1 -25 23 -43 53 -34 58
-36 77 -11 173 5 21 15 89 23 150 8 62 17 133 21 160 5 31 3 47 -4 47 -14 0
-25 -40 -61 -234 -16 -87 -32 -160 -34 -163 -9 -9 -63 82 -95 160 l-33 78 16
86 c8 47 20 153 27 234 12 154 7 199 -26 199 -21 0 -29 -35 -15 -58 10 -16 8
-56 -9 -202 -11 -100 -23 -185 -27 -188 -13 -14 -55 51 -110 170 l-58 127 16
63 c47 179 100 503 79 483 -6 -5 -32 -128 -58 -272 -26 -145 -51 -263 -54
-263 -4 0 -40 62 -80 138 -41 75 -87 163 -104 194 l-31 58 275 268 c151 148
366 353 476 458 111 104 255 246 320 316 l119 128 58 -63 c31 -34 82 -94 112
-132z m725 -735 c11 -52 27 -129 36 -170 45 -226 87 -438 105 -535 11 -60 35
-190 54 -287 32 -163 63 -345 86 -508 5 -36 16 -112 24 -170 13 -95 40 -329
80 -695 16 -142 22 -193 61 -455 25 -177 43 -478 26 -450 -9 15 -26 115 -57
325 -9 61 -25 162 -36 225 -12 63 -23 135 -25 160 -3 25 -22 146 -44 270 -73
419 -99 575 -110 665 -6 50 -21 155 -34 235 -14 80 -32 204 -41 275 -9 72 -30
191 -46 265 -17 74 -39 200 -50 280 -11 80 -24 178 -30 218 -5 41 -17 106 -25
145 -8 40 -19 99 -25 132 -21 133 -41 232 -54 275 -7 25 -20 86 -29 135 -8 50
-24 128 -34 175 -10 47 -22 126 -25 175 -6 87 -3 77 83 -250 49 -187 99 -383
110 -435z m-270 740 c0 -5 -4 -10 -10 -10 -5 0 -10 5 -10 10 0 6 5 10 10 10 6
0 10 -4 10 -10z m-1831 -1082 c18 -29 54 -91 82 -138 28 -47 96 -170 151 -275
56 -104 115 -216 134 -247 l33 -57 -29 -138 c-49 -236 -133 -550 -215 -803
-29 -91 -62 -194 -73 -230 -12 -36 -24 -74 -28 -85 -6 -16 -5 -18 6 -8 14 13
66 151 152 403 53 155 178 602 198 710 7 36 16 68 20 73 3 4 35 -44 69 -108
l62 -115 -21 -92 c-12 -51 -33 -133 -47 -183 -14 -49 -28 -103 -31 -119 -4
-25 -3 -27 15 -17 21 11 38 57 81 223 15 56 32 103 39 105 6 2 23 -16 37 -40
41 -69 36 -138 -34 -471 -86 -414 -278 -1031 -339 -1087 -12 -11 -21 -26 -21
-34 0 -29 19 -14 50 41 31 53 43 85 130 329 76 213 150 478 220 785 53 236 64
275 75 274 6 0 32 -43 59 -94 l49 -94 -38 -125 c-48 -165 -54 -191 -45 -191
13 0 60 135 84 243 12 50 29 32 111 -117 32 -59 37 -75 33 -115 -9 -79 -37
-162 -56 -159 -13 3 -19 -18 -33 -117 -10 -66 -29 -156 -42 -200 -31 -100
-126 -369 -160 -453 -30 -73 -16 -78 26 -11 43 70 165 440 197 602 30 143 78
317 90 317 9 0 77 -125 163 -300 91 -185 154 -298 270 -482 48 -75 122 -203
166 -285 43 -81 100 -186 125 -233 57 -104 61 -122 75 -330 6 -91 13 -195 16
-232 3 -37 1 -69 -4 -72 -5 -3 -114 5 -242 18 -129 14 -279 27 -334 31 -55 3
-134 10 -175 16 -41 5 -129 14 -195 19 -66 4 -223 18 -350 29 -126 11 -286 25
-355 31 -69 6 -206 20 -305 30 -99 11 -268 27 -375 35 -200 16 -320 26 -495
45 -337 36 -518 53 -735 66 -135 8 -326 26 -425 39 -252 34 -614 60 -1215 90
-400 19 -758 37 -897 44 -61 3 -115 9 -119 13 -4 4 6 12 22 18 16 6 73 32 126
57 54 26 101 44 104 41 3 -4 -6 -25 -20 -47 -55 -86 7 -33 83 72 23 31 60 69
82 83 68 42 170 97 174 92 2 -2 -10 -32 -27 -66 -16 -35 -27 -66 -23 -70 9 -9
41 35 86 117 26 49 48 75 85 99 77 52 124 75 124 60 0 -7 -40 -87 -89 -178
-49 -91 -87 -167 -85 -170 10 -9 47 49 210 328 47 81 50 84 162 152 62 39 115
70 117 70 13 0 -1 -37 -56 -145 -33 -66 -82 -156 -109 -199 -50 -81 -57 -115
-15 -76 29 28 176 285 220 386 36 84 56 105 179 199 71 54 103 71 112 63 9 -9
-26 -117 -61 -193 -88 -187 -136 -285 -165 -332 -38 -64 -19 -75 27 -15 71 90
206 385 237 517 10 39 20 75 24 81 9 14 253 184 263 184 13 0 12 -6 -31 -145
-37 -117 -137 -377 -203 -527 -41 -93 -14 -67 31 30 117 252 145 319 187 447
25 77 50 160 56 184 13 52 16 55 200 189 81 59 175 129 210 156 63 47 64 48
67 24 2 -14 -11 -59 -27 -101 -17 -42 -55 -147 -85 -234 -29 -87 -67 -192 -84
-233 -17 -41 -61 -151 -98 -245 -36 -93 -89 -223 -116 -288 -46 -111 -55 -145
-30 -115 15 19 95 184 122 253 13 33 27 65 31 71 7 9 116 284 162 409 17 44
55 163 112 350 62 201 62 201 123 254 32 27 83 69 114 93 31 23 179 142 328
263 149 121 298 242 333 270 118 94 352 289 420 349 118 105 516 476 642 598
66 65 123 117 127 118 3 0 20 -24 37 -52z m2055 -38 c4 -34 3 -47 -2 -35 -12
28 -24 124 -13 105 5 -8 12 -40 15 -70z m396 -2501 c0 -5 -4 -9 -10 -9 -5 0
-10 7 -10 16 0 8 5 12 10 9 6 -3 10 -10 10 -16z m-535 -947 c31 -64 79 -154
107 -200 28 -46 46 -87 42 -91 -5 -5 -47 -5 -94 0 -88 8 -110 20 -110 63 0 12
-7 89 -15 171 -8 83 -15 161 -15 174 0 41 24 8 85 -117z m-4405 12 c0 -14 -3
-14 -15 -4 -8 7 -15 14 -15 16 0 2 7 4 15 4 8 0 15 -7 15 -16z m385 -30 c50
-4 93 -8 97 -11 4 -2 99 -10 210 -18 112 -8 275 -24 363 -35 88 -11 176 -19
195 -18 19 1 80 -4 135 -11 55 -6 169 -16 253 -20 84 -5 156 -12 160 -15 3 -4
1 -16 -6 -26 -7 -11 -12 -27 -12 -35 0 -9 -15 -30 -32 -46 -28 -25 -30 -31
-18 -39 8 -5 23 -10 32 -10 23 0 40 -34 36 -73 -2 -27 -12 -37 -57 -64 -30
-18 -59 -42 -65 -54 -15 -31 -98 -49 -216 -47 -71 1 -118 -4 -185 -22 l-90
-23 -100 63 c-55 34 -122 77 -150 95 -27 18 -79 48 -113 66 -116 62 -135 74
-274 171 -102 72 -123 81 -113 48 6 -19 5 -19 -42 2 -26 12 -59 29 -73 38 -14
10 -49 32 -77 50 -29 18 -53 37 -53 42 0 6 20 8 53 4 28 -3 93 -9 142 -12z
m-79 -106 c32 -24 288 -156 344 -178 19 -7 44 -21 55 -30 11 -9 65 -41 120
-70 113 -60 305 -180 305 -191 0 -4 -12 -10 -27 -14 -47 -11 -315 -116 -375
-146 -32 -16 -64 -29 -72 -29 -15 0 -188 191 -222 245 -10 17 -57 74 -104 127
-128 146 -255 305 -255 319 0 7 15 16 33 20 19 4 39 12 45 18 7 7 29 0 76 -26
36 -20 71 -40 77 -45z m1786 -44 c36 -7 46 -53 24 -106 -9 -21 -16 -49 -16
-63 0 -17 -15 -42 -45 -73 l-45 -47 -20 24 c-22 26 -24 41 -10 90 7 25 6 40
-5 61 -8 15 -13 40 -12 56 1 20 -4 31 -21 40 -58 29 -50 36 38 29 47 -3 97 -8
112 -11z m343 -24 c250 -19 580 -51 615 -59 19 -5 80 -12 134 -15 183 -12 217
-17 205 -32 -6 -8 -20 -14 -29 -14 -20 0 -55 -39 -65 -71 -5 -14 -12 -18 -31
-13 -16 4 -40 -3 -76 -23 -48 -27 -65 -31 -178 -37 -69 -4 -201 -14 -293 -22
-93 -8 -179 -11 -191 -8 -13 3 -41 1 -62 -5 -45 -12 -100 -1 -136 28 l-23 19
29 58 c28 55 29 59 15 98 -16 47 -70 89 -108 84 -36 -4 -36 -22 -1 -62 40 -45
40 -93 0 -88 -14 2 -37 3 -52 3 -37 0 -41 11 -22 58 9 23 14 48 10 56 -8 23
50 55 99 55 22 0 94 -5 160 -10z m-565 -9 c0 -16 -30 -33 -46 -27 -13 5 -14 9
-4 21 13 16 50 21 50 6z m-1659 -128 c56 -71 168 -206 248 -302 108 -129 142
-177 135 -187 -5 -8 -43 -34 -84 -59 l-75 -44 -22 27 c-26 31 -28 44 -11 72
11 17 8 24 -24 57 -20 21 -45 58 -56 83 -56 131 -159 341 -188 385 -28 41 -45
95 -30 95 2 0 50 -57 107 -127z m1699 42 c19 -23 9 -139 -15 -166 -29 -32
-135 -109 -151 -109 -10 0 -11 6 -2 30 11 32 55 70 82 70 34 0 48 82 22 130
-10 17 -11 30 -5 42 12 22 52 23 69 3z m2003 -41 c122 -4 167 -10 167 -24 0
-8 -15 -12 -93 -25 -20 -3 -72 -24 -113 -47 -69 -37 -79 -40 -98 -27 -11 7
-46 16 -76 19 l-55 5 -1 40 c-1 22 -2 45 -4 50 -6 25 4 28 78 20 42 -4 130 -9
195 -11z m-393 -33 c43 -31 32 -46 -28 -43 -45 3 -55 1 -71 -19 -10 -12 -23
-19 -29 -15 -21 13 -13 47 18 78 34 33 63 33 110 -1z m803 -151 c4 -69 5 -135
2 -147 -3 -13 -34 -38 -82 -67 l-77 -46 -331 0 c-181 0 -360 -3 -397 -7 -40
-3 -68 -2 -68 3 0 16 83 64 121 70 29 5 40 13 53 41 13 27 30 41 84 65 37 17
96 47 132 68 36 20 92 48 125 60 33 13 68 30 77 38 16 13 66 22 243 41 119 13
109 23 118 -119z m236 95 c113 -26 146 -45 121 -69 -25 -23 -278 -151 -285
-144 -20 20 -35 214 -18 231 12 13 78 7 182 -18z m-2309 -48 c0 -41 -35 -111
-63 -125 -63 -31 -80 -25 -97 36 -6 24 -13 49 -16 56 -9 24 25 46 70 46 30 0
48 6 61 20 23 26 45 10 45 -33z m6227 33 c114 -5 351 -12 526 -16 174 -4 317
-10 317 -14 0 -4 -21 -11 -47 -14 -27 -4 -93 -16 -148 -27 -207 -40 -730 -127
-980 -163 -93 -13 -237 -39 -320 -56 -225 -47 -280 -52 -335 -28 -46 19 -273
68 -319 68 -14 0 -83 11 -153 25 -146 29 -206 35 -892 100 -88 8 -198 15 -245
16 -47 0 -108 4 -136 8 l-50 7 55 12 c61 14 135 25 320 47 69 8 161 20 205 26
177 25 1693 31 2202 9z m-3610 -53 c11 -12 20 -123 10 -135 -12 -15 -151 -82
-171 -82 -16 0 -22 21 -32 102 -6 55 -6 56 24 72 17 9 38 13 46 10 10 -4 20 3
28 21 11 24 16 27 51 22 21 -3 41 -8 44 -10z m-2914 -10 c7 -18 -8 -35 -89
-99 -96 -76 -160 -158 -123 -158 5 0 34 22 62 48 89 82 140 120 187 136 34 12
46 12 52 3 14 -22 8 -34 -26 -60 -40 -31 -70 -90 -62 -122 4 -14 1 -27 -6 -32
-7 -4 -60 -10 -118 -13 l-104 -5 -10 -32 c-11 -40 -18 -41 -36 -8 -17 32 -54
30 -58 -2 -2 -15 10 -37 37 -66 23 -24 41 -48 41 -52 0 -4 -42 -5 -94 -2 -134
8 -177 34 -90 56 47 12 56 33 16 39 -27 4 -28 18 -2 32 11 6 20 20 20 32 0 34
48 88 97 109 25 11 73 43 107 73 82 71 168 136 182 136 7 0 14 -6 17 -13z
m1737 -18 c0 -5 -9 -9 -20 -9 -22 0 -27 16 -7 23 15 5 27 -1 27 -14z m-120 -8
c0 -11 -5 -32 -10 -47 l-11 -28 -31 31 c-39 39 -33 63 17 63 28 0 35 -4 35
-19z m5978 4 c-14 -8 -68 -30 -120 -49 -190 -71 -489 -191 -1028 -414 -118
-48 -273 -110 -345 -135 -320 -115 -406 -144 -410 -137 -2 4 -9 40 -15 81 -6
41 -18 104 -26 140 -9 37 -14 80 -12 95 3 27 6 29 63 36 32 4 83 15 111 23 29
8 67 15 84 15 18 0 72 9 119 20 47 11 154 33 236 50 83 17 254 55 380 85 729
171 872 202 945 203 45 1 45 1 18 -13z m-6429 -4 c12 -8 9 -16 -15 -44 -16
-20 -36 -38 -44 -41 -28 -10 -244 -25 -405 -28 l-160 -3 -3 31 c-4 42 16 55
85 60 32 2 117 8 188 14 121 10 179 13 295 18 25 1 51 -2 59 -7z m-747 -39
c20 -13 39 -31 42 -40 12 -40 29 -183 23 -189 -4 -4 -46 -9 -93 -11 l-86 -5
31 58 c21 39 31 72 31 101 0 59 -25 60 -40 2 -17 -65 -31 -98 -58 -129 -21
-26 -30 -29 -82 -29 -78 0 -105 12 -119 50 -8 25 -7 38 5 61 15 29 39 47 50
36 4 -4 8 -23 13 -73 1 -10 43 -34 60 -34 4 0 12 10 18 23 8 17 7 28 -3 42
-21 28 -17 44 11 51 24 6 95 75 95 93 0 12 43 30 55 22 6 -3 27 -17 47 -29z
m888 -17 c0 -17 -34 -28 -61 -20 -15 5 -18 10 -9 20 12 14 49 24 63 17 4 -2 7
-9 7 -17z m-1590 -13 c0 -37 -66 -72 -134 -72 -27 0 -61 -9 -90 -25 l-47 -25
-74 43 c-41 23 -75 48 -75 55 0 8 16 12 48 13 26 0 90 4 142 8 90 7 97 6 123
-16 33 -27 46 -29 52 -8 3 8 7 22 10 30 7 22 45 19 45 -3z m4101 1 c28 -5 30
-7 14 -14 -11 -4 -36 -8 -55 -8 -19 -1 -42 -6 -50 -11 -19 -13 -23 -13 143 6
154 17 360 14 397 -6 12 -6 19 -14 16 -17 -8 -9 -302 -63 -472 -88 -56 -8
-130 -21 -165 -30 -35 -8 -78 -15 -96 -15 -27 0 -33 5 -42 33 -23 73 -25 70
74 89 78 15 82 17 30 13 -124 -10 -171 -17 -192 -27 -27 -13 -30 -28 -6 -28
14 0 13 -4 -6 -24 -12 -13 -25 -42 -28 -64 -5 -39 -7 -41 -47 -47 -182 -28
-252 -41 -398 -78 -93 -22 -168 -45 -168 -49 0 -13 26 -10 133 17 159 39 517
105 569 105 31 0 50 5 55 14 5 10 75 26 213 50 113 20 241 43 285 51 44 8 112
20 150 25 39 6 106 18 150 27 57 11 110 14 187 10 105 -5 161 -19 128 -31 -34
-12 -234 -48 -365 -66 -257 -35 -547 -85 -727 -124 -62 -13 -174 -37 -248 -51
-74 -15 -144 -31 -156 -35 -12 -5 -51 -14 -86 -20 -88 -16 -248 -69 -248 -82
0 -14 25 -9 205 40 83 22 222 57 310 77 88 20 194 45 235 55 41 10 113 23 160
29 47 7 110 16 140 21 198 35 299 51 400 64 63 9 151 23 195 31 199 37 314 55
356 55 56 0 150 -17 162 -29 11 -11 -93 -33 -253 -56 -63 -9 -160 -25 -215
-36 -55 -10 -127 -24 -160 -30 -33 -6 -123 -24 -200 -39 -77 -16 -178 -36
-225 -45 -91 -17 -169 -35 -398 -91 -79 -19 -165 -36 -190 -38 -26 -2 -63 -11
-82 -19 -19 -8 -75 -25 -125 -37 -49 -12 -92 -24 -95 -27 -15 -15 133 9 250
39 74 19 218 54 320 77 102 23 235 53 295 66 61 14 146 30 190 35 136 16 236
32 325 51 75 17 346 62 615 103 108 16 207 12 294 -13 74 -20 86 -35 39 -46
-51 -11 -157 -14 -164 -4 -10 17 -166 6 -247 -17 -25 -8 -12 -21 29 -28 51
-10 37 -30 -27 -37 -30 -4 -66 -11 -80 -17 -34 -14 -66 -5 -72 19 -3 10 -13
19 -22 19 -24 0 -277 -52 -515 -105 -371 -83 -449 -95 -1035 -154 -319 -33
-721 -59 -732 -47 -10 9 -32 202 -26 226 3 11 55 48 126 91 67 40 140 87 162
105 22 17 63 43 91 57 67 34 196 79 203 71 12 -12 -116 -98 -319 -216 -90 -52
-140 -93 -140 -115 0 -26 33 -12 75 32 24 24 56 47 72 50 15 4 51 17 78 30 77
36 216 83 365 121 74 20 141 40 150 45 25 16 -49 1 -198 -40 -232 -65 -236
-64 -105 18 135 85 166 95 403 134 43 7 356 7 391 0z m-1192 -101 c11 -66 11
-84 1 -97 -21 -26 -47 -18 -54 16 -15 77 0 175 26 167 7 -3 19 -41 27 -86z
m-3333 22 c77 -47 101 -69 127 -124 11 -25 23 -48 25 -52 2 -4 -22 -24 -53
-43 -63 -41 -62 -60 4 -71 20 -3 53 -12 75 -20 56 -21 159 -41 251 -49 70 -6
93 -13 193 -63 87 -43 123 -56 159 -56 36 -1 48 3 51 15 2 11 -10 19 -40 28
-63 18 -118 43 -118 54 0 6 33 6 93 1 50 -5 261 -8 467 -7 705 3 662 4 689
-14 31 -20 154 -23 301 -6 285 33 857 50 880 27 5 -5 12 -42 16 -81 l7 -72
-34 -5 c-159 -25 -1557 -47 -1981 -31 l-198 7 -12 39 c-6 21 -14 39 -17 39
-17 0 -49 -32 -55 -54 -8 -33 -32 -35 -286 -25 -219 9 -339 19 -490 44 -47 8
-130 19 -185 25 -102 11 -368 51 -485 72 -109 19 -151 44 -165 98 -7 29 17 55
104 113 71 47 84 39 75 -44 -6 -53 -4 -60 19 -83 30 -30 74 -43 96 -29 24 16
21 103 -4 117 -11 6 -32 23 -48 38 -43 42 -34 67 38 102 87 42 375 144 411
145 18 1 53 -13 90 -35z m1834 6 c-8 -5 -40 -9 -70 -9 -46 1 -50 3 -25 9 46
12 113 12 95 0z m-150 -10 c0 -5 -15 -10 -32 -10 -25 0 -29 3 -18 10 20 13 50
13 50 0z m-106 -16 c-5 -2 -56 -8 -114 -13 -58 -6 -127 -13 -155 -17 -35 -4
-46 -3 -36 4 26 19 263 44 300 33 8 -3 11 -6 5 -7z m1616 -55 c0 -28 6 -43 25
-57 14 -11 25 -24 25 -30 0 -14 -67 -55 -79 -48 -16 10 -24 161 -11 187 12 22
13 22 26 4 8 -10 14 -36 14 -56z m-1087 42 c5 -5 -27 -32 -70 -62 l-78 -53
-225 -8 c-124 -4 -265 -12 -315 -17 -49 -6 -105 -11 -122 -11 -32 0 -33 2 -33
39 0 49 15 61 82 67 29 2 125 11 213 19 88 8 221 17 294 21 74 4 146 10 160
15 29 9 81 3 94 -10z m5907 11 c0 -8 -87 -61 -350 -212 -80 -46 -188 -109
-240 -140 -52 -32 -120 -70 -150 -85 -30 -15 -136 -79 -235 -143 -348 -223
-571 -350 -587 -334 -11 11 -48 191 -48 233 0 34 18 46 161 104 63 26 128 56
145 66 17 10 40 19 50 19 20 0 137 40 173 59 11 6 46 20 78 30 71 24 283 110
339 139 23 12 97 43 165 71 68 27 142 57 164 67 65 29 319 132 328 133 4 1 7
-3 7 -7z m-4924 -65 c3 -8 8 -46 13 -86 6 -64 5 -76 -12 -97 -12 -16 -29 -24
-48 -24 -26 0 -29 3 -29 33 0 18 7 42 15 53 8 11 15 41 15 70 0 28 3 54 7 57
11 12 33 8 39 -6z m-626 -83 c15 -17 41 -142 31 -148 -17 -11 -79 -17 -85 -8
-10 17 -19 120 -12 146 7 30 45 36 66 10z m368 9 c23 -5 23 -9 17 -67 -9 -74
-17 -86 -61 -86 -38 0 -58 25 -49 65 3 14 7 36 10 50 3 14 16 30 28 35 28 11
27 11 55 3z m-650 -49 c2 -21 1 -63 -3 -91 -6 -47 -9 -53 -29 -53 -21 0 -24 6
-30 68 -4 37 -8 76 -9 86 -1 13 6 22 23 27 38 11 45 6 48 -37z m103 -10 c7
-53 14 -74 28 -74 4 0 3 22 -3 49 -11 54 1 81 34 81 21 0 30 -27 30 -92 0 -38
-5 -50 -26 -67 -16 -13 -41 -21 -64 -21 -43 0 -46 5 -56 113 l-7 69 29 -4 c27
-3 29 -7 35 -54z m307 -21 c-3 -76 -4 -78 -30 -81 -23 -3 -28 2 -37 35 -6 21
-11 57 -11 81 l0 42 40 0 41 0 -3 -77z m118 31 c-3 -26 -6 -60 -6 -75 0 -27
-3 -29 -41 -29 l-42 0 5 64 c3 35 9 69 12 75 4 6 23 11 43 11 l36 0 -7 -46z
m243 29 c0 -10 -8 -40 -18 -68 -13 -36 -23 -50 -37 -50 -15 0 -20 8 -22 44 -5
73 3 91 43 91 27 0 35 -4 34 -17z m-2189 -24 c0 -17 -10 -49 -22 -71 l-23 -40
-64 4 c-49 3 -67 9 -75 23 -6 10 -23 31 -38 47 -16 16 -28 31 -28 34 0 3 42 4
93 3 74 -2 98 1 117 14 34 24 40 21 40 -14z m221 -10 c37 -26 37 -51 -2 -83
-36 -31 -81 -34 -108 -7 -11 11 -27 21 -37 23 -21 4 -31 35 -16 50 8 8 91 32
125 37 5 1 22 -8 38 -20z m1007 -2 c13 -10 17 -63 5 -70 -5 -3 -118 -10 -253
-16 -135 -6 -337 -16 -450 -22 -248 -12 -272 -7 -214 46 16 15 44 26 72 30 26
4 88 14 137 22 175 30 669 37 703 10z m3424 -69 c-16 -16 -27 -18 -66 -13 -56
9 -52 16 17 30 63 13 75 9 49 -17z m-282 -213 c0 -8 -4 -15 -10 -15 -5 0 -10
7 -10 15 0 8 5 15 10 15 6 0 10 -7 10 -15z m920 -419 c0 -11 -19 -15 -25 -6
-3 5 1 10 9 10 9 0 16 -2 16 -4z m180 -215 c-8 -5 -33 -12 -55 -16 -37 -6 -39
-5 -21 9 11 9 36 16 55 16 26 -1 32 -3 21 -9z"/>
<path d="M4674 10478 c-9 -18 -34 -59 -55 -90 -22 -32 -52 -84 -67 -116 -16
-32 -47 -83 -70 -113 -23 -31 -42 -64 -42 -75 0 -28 -26 -63 -141 -192 -111
-124 -167 -180 -250 -252 -45 -37 -59 -44 -92 -43 -54 3 -102 -30 -87 -57 18
-33 48 -44 75 -26 13 9 40 25 61 36 20 12 59 40 87 63 77 63 266 248 291 283
11 17 33 49 48 70 15 21 29 50 31 64 2 14 13 29 24 34 12 6 29 24 37 40 9 17
35 63 57 101 21 39 42 79 46 90 4 11 26 57 51 103 40 77 47 112 23 112 -6 0
-18 -15 -27 -32z"/>
<path d="M4709 10134 c-9 -11 -47 -79 -85 -153 -51 -97 -85 -149 -128 -195
-32 -33 -72 -81 -90 -106 -50 -73 -289 -300 -315 -300 -27 0 -39 -27 -19 -46
12 -12 20 -12 63 2 101 34 385 354 492 554 55 102 104 220 101 241 -3 21 -3
21 -19 3z"/>
<path d="M4838 9923 c-9 -10 -33 -58 -54 -107 -37 -88 -106 -218 -141 -266
-10 -14 -42 -59 -72 -100 -105 -146 -235 -273 -293 -285 -34 -8 -35 -15 -5
-43 l24 -22 59 39 c128 84 299 291 399 484 65 125 130 292 119 308 -8 14 -19
11 -36 -8z"/>
<path d="M3870 9834 c-47 -35 -99 -77 -117 -94 -18 -16 -37 -30 -43 -30 -5 0
-10 -4 -10 -10 0 -21 59 -9 101 22 83 60 174 142 174 157 0 27 -20 19 -105
-45z"/>
<path d="M4904 9608 c-13 -29 -28 -60 -32 -68 -5 -8 -27 -54 -50 -101 -38 -77
-97 -178 -156 -265 -48 -72 -181 -214 -209 -223 -34 -12 -31 -32 7 -46 24 -8
32 -4 97 60 132 131 231 281 331 500 51 110 72 195 49 195 -7 0 -23 -24 -37
-52z"/>
<path d="M5005 9408 c-31 -77 -148 -302 -190 -368 -58 -90 -203 -279 -226
-293 -20 -13 -25 -42 -9 -52 6 -4 26 4 46 16 35 21 49 38 171 201 89 120 253
456 253 518 0 35 -26 21 -45 -22z"/>
<path d="M5114 9093 c-11 -47 -34 -83 -57 -92 -14 -6 -42 -47 -80 -120 -71
-138 -141 -247 -181 -283 -28 -25 -29 -29 -15 -43 13 -14 20 -14 45 -3 53 24
88 72 153 208 35 74 77 153 93 176 24 33 68 148 68 177 0 19 -20 4 -26 -20z"/>
<path d="M5133 8748 c-15 -29 -41 -83 -59 -119 -17 -36 -62 -111 -98 -167 -36
-55 -66 -107 -66 -116 0 -8 8 -20 19 -25 14 -8 23 -5 43 17 55 58 153 253 213
421 13 39 13 41 -5 41 -14 0 -28 -17 -47 -52z"/>
<path d="M5306 8591 c-9 -10 -39 -68 -65 -129 -52 -116 -106 -208 -149 -255
-21 -22 -24 -31 -16 -44 17 -26 27 -25 72 8 32 23 51 50 83 117 62 132 99 229
106 278 6 48 -3 56 -31 25z"/>
<path d="M5404 8364 c-10 -23 -13 -47 -8 -63 7 -26 7 -25 24 14 30 69 33 85
15 85 -9 0 -23 -16 -31 -36z"/>
<path d="M5316 8145 c-9 -13 -36 -49 -62 -80 -46 -57 -51 -85 -15 -85 30 0 74
51 96 111 11 29 21 56 23 60 2 4 -4 9 -12 12 -9 4 -21 -4 -30 -18z"/>
<path d="M5514 8118 c-14 -29 -51 -95 -81 -146 -38 -64 -52 -97 -45 -104 26
-26 85 44 147 174 39 80 42 100 21 118 -12 9 -19 2 -42 -42z"/>
<path d="M5654 8028 c-26 -42 -134 -278 -134 -293 0 -22 21 -29 37 -13 26 27
123 269 123 309 0 13 -18 11 -26 -3z"/>
<path d="M5726 7803 c-23 -47 -76 -184 -76 -199 0 -20 13 -17 28 7 16 25 82
194 82 209 0 20 -20 10 -34 -17z"/>
<path d="M5860 7635 c0 -8 2 -15 4 -15 2 0 6 7 10 15 3 8 1 15 -4 15 -6 0 -10
-7 -10 -15z"/>
<path d="M7254 7548 c25 -124 90 -513 102 -610 5 -47 23 -63 40 -37 6 11 3 32
-32 189 -8 36 -25 130 -39 210 -26 159 -54 270 -67 270 -5 0 -6 -10 -4 -22z"/>
<path d="M7420 7368 c0 -12 7 -47 15 -77 19 -74 41 -185 70 -354 45 -260 49
-272 79 -241 22 21 20 70 -4 104 -15 21 -32 92 -61 247 -55 298 -66 343 -89
343 -6 0 -10 -10 -10 -22z"/>
<path d="M9210 4995 c0 -26 47 -145 74 -185 14 -22 33 -40 41 -40 8 0 15 2 15
4 0 3 -22 51 -50 107 -27 56 -50 108 -50 116 0 7 -7 13 -15 13 -8 0 -15 -7
-15 -15z"/>
<path d="M9500 4592 c0 -27 30 -66 42 -54 7 7 4 21 -8 41 -20 35 -34 40 -34
13z"/>
<path d="M2828 8820 c-11 -81 -10 -126 2 -114 6 6 10 44 8 90 l-3 79 -7 -55z"/>
<path d="M2957 8780 c-3 -8 -8 -81 -11 -162 -6 -138 -20 -225 -61 -386 -16
-62 -14 -86 4 -66 11 11 66 234 81 324 16 107 7 340 -13 290z"/>
<path d="M2967 7674 c-4 -4 -7 -17 -7 -28 1 -19 1 -20 11 -3 11 19 8 43 -4 31z"/>
<path d="M955 3249 c-4 -6 -5 -12 -2 -15 2 -3 7 2 10 11 7 17 1 20 -8 4z"/>
<path d="M7173 4965 c3 -33 14 -96 25 -140 19 -73 48 -236 87 -480 8 -49 19
-144 26 -210 16 -175 18 -178 14 -15 -2 80 -9 179 -16 220 -15 101 -130 674
-136 680 -3 3 -3 -22 0 -55z"/>
<path d="M7430 4566 c0 -10 11 -65 24 -124 30 -131 49 -258 41 -271 -3 -6 6
-135 21 -288 23 -249 25 -309 21 -573 -5 -313 -17 -422 -62 -603 -14 -54 -25
-107 -25 -119 0 -18 2 -19 16 -7 51 42 95 300 109 639 7 158 -6 420 -30 625
-8 72 -17 182 -19 246 -5 131 -15 192 -57 363 -29 117 -39 147 -39 112z"/>
<path d="M7943 4123 c4 -27 30 -124 59 -216 42 -138 49 -170 38 -177 -12 -8
-11 -31 8 -149 46 -283 65 -728 37 -874 -8 -43 -15 -88 -15 -100 0 -19 2 -19
15 -7 8 8 24 69 36 135 21 114 21 130 10 305 -20 318 -31 432 -51 529 -16 79
-17 97 -6 113 16 23 16 23 -58 258 -31 96 -56 187 -56 203 0 15 -5 27 -11 27
-8 0 -10 -15 -6 -47z"/>
<path d="M7714 4053 c16 -56 30 -163 60 -468 13 -125 13 -142 -1 -157 -13 -15
-14 -29 -3 -116 19 -147 8 -445 -19 -539 -31 -107 -27 -138 13 -94 40 44 61
225 45 382 -19 180 -22 255 -11 244 6 -5 12 -19 15 -30 3 -11 5 12 5 50 2 116
-42 528 -68 650 -6 28 -13 60 -16 73 -2 12 -9 22 -15 22 -6 0 -8 -8 -5 -17z"/>
<path d="M7321 3938 c0 -13 4 -32 9 -43 7 -16 9 -13 9 17 1 20 -3 40 -9 43 -6
3 -10 -4 -9 -17z"/>
<path d="M7343 3795 c0 -22 2 -30 4 -17 2 12 2 30 0 40 -3 9 -5 -1 -4 -23z"/>
<path d="M8246 3755 c3 -33 12 -87 19 -120 8 -33 21 -107 30 -165 9 -58 20
-123 25 -145 5 -23 28 -169 51 -325 35 -245 40 -300 35 -387 -6 -106 4 -135
23 -65 29 104 2 323 -125 987 -33 175 -33 175 -40 215 -12 64 -25 68 -18 5z"/>
<path d="M7351 3557 c-1 -123 2 -186 9 -182 12 7 12 232 0 315 -5 39 -8 -1 -9
-133z"/>
<path d="M8536 3630 c5 -38 31 -138 98 -385 13 -49 26 -106 51 -235 7 -36 23
-110 36 -165 15 -70 22 -134 23 -212 0 -62 4 -113 8 -113 21 0 21 205 -1 315
-64 316 -182 775 -210 821 -10 15 -11 11 -5 -26z"/>
<path d="M8840 3473 c0 -19 24 -99 75 -258 7 -23 30 -115 50 -205 20 -91 43
-189 52 -218 10 -36 14 -83 11 -138 -3 -86 2 -101 23 -62 22 41 7 140 -77 503
-20 86 -113 377 -125 390 -5 5 -9 0 -9 -12z"/>
<path d="M7353 3290 c0 -30 2 -43 4 -27 2 15 2 39 0 55 -2 15 -4 2 -4 -28z"/>
<path d="M9185 3323 c21 -53 65 -185 65 -197 0 -7 27 -80 59 -162 61 -152 101
-304 101 -382 0 -53 23 -54 28 -1 8 70 -54 312 -104 407 -7 15 -14 32 -14 39
0 11 -83 225 -111 287 -13 29 -35 36 -24 9z"/>
<path d="M9506 3078 c4 -18 17 -67 30 -108 13 -41 24 -88 24 -103 0 -15 7 -30
15 -33 9 -4 28 -49 45 -108 17 -55 40 -124 51 -152 13 -34 17 -61 13 -83 -6
-26 -4 -33 7 -29 24 8 22 49 -6 138 -15 47 -40 126 -56 175 -16 50 -29 101
-29 113 0 13 -13 54 -29 90 -16 37 -33 80 -38 96 -14 43 -34 46 -27 4z"/>
<path d="M9840 2783 c0 -6 18 -51 41 -100 51 -110 83 -224 74 -263 -8 -35 9
-41 25 -10 16 30 -21 172 -69 267 -42 83 -70 125 -71 106z"/>
<path d="M10130 2623 c0 -5 20 -53 45 -108 25 -55 45 -110 45 -122 0 -13 5
-23 11 -23 22 0 2 79 -42 166 -40 79 -59 107 -59 87z"/>
<path d="M10377 2563 c4 -10 24 -46 44 -80 21 -33 48 -81 60 -105 13 -24 24
-37 27 -30 5 15 -30 84 -87 174 -35 56 -57 76 -44 41z"/>
<path d="M9437 2514 c-10 -11 -9 -52 2 -59 13 -8 24 32 14 50 -5 9 -12 12 -16
9z"/>
<path d="M10610 2428 c0 -21 80 -168 92 -168 13 0 -42 122 -76 165 -14 18 -15
18 -16 3z"/>
<path d="M10861 2354 c44 -112 79 -171 79 -131 0 21 -46 111 -65 127 -10 8
-16 10 -14 4z"/>
<path d="M5814 6758 c16 -88 27 -208 31 -363 9 -286 6 -909 -4 -976 -5 -35
-13 -104 -16 -154 -6 -80 -16 -167 -56 -460 -17 -123 -79 -447 -91 -468 -11
-21 -2 -71 11 -62 21 12 110 443 146 700 55 403 66 571 66 981 -1 464 -21 740
-61 814 -17 32 -33 24 -26 -12z"/>
<path d="M5624 6705 c-4 -17 -1 -113 6 -215 7 -102 16 -270 19 -375 4 -129 9
-184 16 -170 13 29 12 340 -3 564 -13 198 -23 253 -38 196z"/>
<path d="M5366 6312 c-3 -10 -26 -134 -50 -277 -25 -143 -52 -300 -61 -349
-23 -125 -14 -150 13 -36 22 93 37 177 87 475 14 83 28 162 31 178 6 30 -11
38 -20 9z"/>
<path d="M5706 5633 c-3 -16 -15 -89 -26 -163 -11 -74 -25 -151 -29 -170 -5
-19 -16 -73 -25 -120 -39 -215 -89 -482 -102 -547 -18 -91 -18 -121 -2 -105
17 17 54 186 99 451 22 128 43 240 48 250 5 9 12 36 15 61 4 25 13 86 21 135
17 113 25 235 14 235 -4 0 -10 -12 -13 -27z"/>
<path d="M6054 5480 c3 -14 13 -79 21 -145 21 -160 36 -234 48 -242 7 -4 8 16
4 59 -8 87 -57 331 -69 343 -6 6 -7 1 -4 -15z"/>
<path d="M5996 5224 c-12 -45 -45 -387 -39 -396 15 -25 24 22 38 192 8 102 17
195 20 208 7 31 -11 28 -19 -4z"/>
<path d="M4517 5600 c-17 -39 -100 -370 -94 -376 5 -5 43 114 87 269 32 113
36 172 7 107z"/>
<path d="M4667 5218 c-4 -62 -15 -149 -26 -193 -10 -44 -22 -98 -25 -120 -8
-46 -69 -324 -95 -435 -44 -181 -160 -547 -279 -875 -185 -513 -179 -495 -163
-495 11 0 64 133 185 465 14 39 62 169 106 290 45 121 92 258 106 305 14 47
38 127 55 179 66 208 163 672 174 836 7 97 -2 155 -23 155 -5 0 -12 -51 -15
-112z"/>
<path d="M4208 5050 c-3 -14 -11 -56 -18 -94 -26 -160 -247 -846 -430 -1336
-17 -47 -37 -103 -45 -125 -7 -22 -43 -118 -79 -213 -36 -95 -66 -179 -66
-188 0 -25 23 -10 33 22 9 28 81 216 152 394 18 47 52 137 75 200 24 63 65
176 92 250 120 326 254 766 288 945 12 63 10 192 -2 145z"/>
<path d="M4812 4850 c-12 -36 -58 -208 -102 -383 -81 -318 -164 -613 -221
-781 -17 -48 -28 -91 -25 -94 7 -6 36 61 36 81 0 7 4 17 9 22 31 35 121 334
211 705 28 118 67 273 86 343 39 142 43 215 6 107z"/>
<path d="M4377 4763 c-15 -49 -36 -126 -47 -173 -12 -47 -37 -143 -56 -213
-20 -71 -33 -131 -31 -133 16 -16 98 243 127 396 6 30 16 78 24 105 23 84 27
105 18 105 -5 0 -21 -39 -35 -87z"/>
<path d="M3667 4765 c-4 -16 -12 -64 -17 -104 -30 -215 -197 -787 -318 -1086
-46 -114 -97 -232 -112 -258 -6 -9 -21 -47 -35 -84 -14 -36 -30 -72 -36 -79
-6 -7 -9 -19 -6 -26 10 -26 188 365 278 608 140 381 270 899 257 1026 l-3 33
-8 -30z"/>
<path d="M3839 4564 c-11 -27 -52 -143 -91 -259 -39 -115 -93 -266 -119 -334
-49 -124 -56 -151 -41 -151 10 0 106 259 206 559 72 214 91 290 45 185z"/>
<path d="M3292 4438 c-20 -48 -66 -203 -141 -474 -28 -99 -76 -250 -107 -335
-30 -85 -73 -201 -94 -259 -21 -58 -68 -185 -104 -284 -68 -183 -72 -196 -58
-196 4 0 20 37 36 83 16 45 39 107 52 137 200 479 266 674 430 1273 28 102 27
97 14 97 -6 0 -19 -19 -28 -42z"/>
<path d="M3058 4390 c-9 -30 -28 -100 -43 -155 -30 -113 -106 -301 -138 -342
-12 -15 -21 -35 -19 -44 2 -9 -20 -72 -47 -140 -82 -204 -207 -538 -235 -629
-15 -47 -62 -153 -104 -237 -71 -142 -84 -184 -47 -153 28 24 134 256 186 410
29 85 70 198 91 250 22 52 57 142 78 200 21 58 50 132 65 165 15 33 42 104 61
159 19 54 41 110 48 125 21 40 82 226 106 320 25 97 23 157 -2 71z"/>
<path d="M5466 4189 c-2 -8 -12 -45 -21 -84 -10 -38 -19 -76 -21 -82 -2 -7 1
-13 6 -13 15 0 58 175 46 187 -3 3 -7 0 -10 -8z"/>
<path d="M4207 4153 c-4 -3 -7 -18 -6 -32 1 -26 1 -25 10 3 9 31 7 41 -4 29z"/>
<path d="M4863 3773 c-34 -79 -58 -145 -54 -148 9 -5 16 7 76 148 25 60 45
116 43 125 -2 9 -31 -47 -65 -125z"/>
<path d="M2643 3878 c-10 -17 -50 -128 -72 -203 -28 -91 -156 -441 -195 -533
-36 -83 -57 -166 -38 -147 22 22 145 317 206 492 35 104 81 230 101 282 34 88
39 121 16 121 -5 0 -13 -6 -18 -12z"/>
<path d="M3546 3739 c-9 -23 -15 -43 -13 -46 3 -2 12 15 21 38 9 23 15 43 13
46 -3 2 -12 -15 -21 -38z"/>
<path d="M4650 3759 c0 -5 5 -7 10 -4 6 3 10 8 10 11 0 2 -4 4 -10 4 -5 0 -10
-5 -10 -11z"/>
<path d="M3577 3703 c-8 -15 -30 -68 -50 -118 -19 -49 -60 -143 -91 -208 -60
-124 -119 -250 -142 -304 -8 -18 -10 -33 -5 -33 20 0 237 463 290 619 23 68
22 91 -2 44z"/>
<path d="M2178 3706 c-9 -8 -23 -46 -33 -83 -29 -115 -70 -238 -164 -498 -99
-274 -107 -300 -91 -290 14 9 72 148 171 417 15 43 37 94 47 115 11 21 25 63
32 93 7 30 26 97 42 149 30 94 28 130 -4 97z"/>
<path d="M4051 3683 c-7 -21 -35 -87 -61 -148 -85 -195 -149 -356 -139 -349
18 11 215 449 225 503 9 43 -9 39 -25 -6z"/>
<path d="M4562 3423 c-5 -10 -22 -56 -37 -103 -15 -47 -52 -143 -82 -213 -30
-71 -53 -131 -50 -134 15 -14 197 409 197 458 0 15 -19 10 -28 -8z"/>
<path d="M3066 3110 c-15 -40 -24 -107 -19 -132 4 -19 -4 -43 -26 -84 -18 -31
-31 -58 -29 -60 3 -2 14 3 26 12 32 22 75 101 74 137 0 16 8 47 19 68 24 49
24 61 -1 29 -18 -23 -20 -23 -20 -5 0 11 -4 27 -10 35 -8 13 -10 13 -14 0z"/>
<path d="M3974 3033 c-14 -32 -50 -102 -81 -156 -30 -54 -53 -100 -50 -103 18
-19 156 212 172 289 10 47 -14 30 -41 -30z"/>
<path d="M3566 2988 c-24 -38 -89 -198 -83 -204 5 -6 87 148 107 202 12 31 -5
32 -24 2z"/>
<path d="M1731 2953 c-7 -17 -24 -46 -37 -64 -22 -30 -24 -56 -3 -43 16 10 60
105 57 122 -2 12 -8 7 -17 -15z"/>
<path d="M2741 2809 c-25 -60 -27 -87 -4 -45 27 51 44 96 34 96 -4 0 -18 -23
-30 -51z"/>
<path d="M1379 2818 c-6 -13 -30 -47 -52 -76 -41 -54 -44 -80 -6 -46 36 31 99
115 99 130 0 22 -28 16 -41 -8z"/>
<path d="M2078 2775 c-30 -47 -46 -91 -29 -80 21 12 62 86 59 103 -3 12 -11 6
-30 -23z"/>
<path d="M1092 2773 c-32 -46 -52 -92 -43 -97 16 -10 81 81 81 114 0 19 -18
10 -38 -17z"/>
<path d="M1616 2745 c-44 -44 -62 -75 -43 -75 16 0 97 81 97 98 0 21 -18 13
-54 -23z"/>
<path d="M1862 2748 c-11 -18 -18 -36 -15 -42 7 -11 53 43 53 62 0 22 -18 13
-38 -20z"/>
<path d="M1266 2754 c-9 -24 -7 -28 9 -14 17 14 20 30 6 30 -5 0 -12 -7 -15
-16z"/>
<path d="M6760 1286 c0 -23 20 -30 46 -15 34 18 30 29 -11 29 -24 0 -35 -5
-35 -14z"/>
<path d="M9888 983 c-25 -6 -22 -20 5 -27 31 -8 50 -7 67 4 30 20 -22 36 -72
23z"/>
<path d="M1830 1211 c0 -26 263 -96 333 -88 66 7 215 37 240 47 22 10 13 10
-229 -6 -90 -6 -138 0 -244 31 -73 22 -100 26 -100 16z"/>
<path d="M1295 1109 c-60 -10 -198 -21 -305 -25 -152 -6 -188 -10 -162 -18 74
-21 602 28 602 57 0 9 1 9 -135 -14z"/>
<path d="M330 1096 c0 -2 18 -6 39 -8 22 -2 37 0 35 4 -5 8 -74 11 -74 4z"/>
<path d="M495 1080 c11 -5 31 -9 45 -9 23 0 23 1 5 9 -11 5 -31 9 -45 9 -23 0
-23 -1 -5 -9z"/>
<path d="M620 1071 c8 -5 42 -6 75 -1 l60 7 -75 1 c-47 1 -69 -2 -60 -7z"/>
<path d="M2240 1061 c0 -13 54 -29 125 -37 81 -9 62 9 -32 30 -83 19 -93 19
-93 7z"/>
<path d="M10769 990 c-135 -8 -194 -21 -157 -35 10 -4 102 -2 205 4 104 6 224
11 268 11 86 0 125 7 125 21 0 10 -240 9 -441 -1z"/>
<path d="M1580 909 c0 -24 60 -69 116 -86 121 -37 394 -16 436 34 21 25 -2 27
-116 8 -68 -11 -131 -15 -157 -12 -24 4 -69 9 -99 10 -34 3 -75 14 -107 30
-57 29 -73 33 -73 16z"/>
<path d="M1360 843 c-14 -2 -92 -20 -175 -40 -125 -30 -175 -36 -297 -41 -81
-2 -145 -8 -143 -12 9 -14 190 -21 270 -10 136 19 396 82 420 102 9 8 -30 9
-75 1z"/>
<path d="M6489 845 c-8 -8 -208 -45 -243 -45 -18 0 -46 4 -62 9 -52 17 -84 22
-84 13 0 -12 56 -37 116 -52 58 -15 125 -6 246 33 l68 21 32 -31 c71 -68 199
-98 299 -70 30 8 80 20 111 27 51 10 89 33 76 46 -3 2 -41 -4 -84 -14 -150
-37 -202 -41 -272 -22 -45 13 -75 28 -101 54 -26 25 -46 36 -67 36 -17 0 -33
-2 -35 -5z"/>
<path d="M3570 769 c0 -34 78 -61 190 -67 52 -2 111 0 130 6 19 6 49 15 67 20
29 9 37 6 95 -34 122 -87 231 -124 359 -124 108 0 123 24 22 34 -124 13 -252
62 -354 135 -36 27 -51 31 -105 31 -34 0 -75 -5 -91 -11 -15 -6 -68 -12 -118
-13 -76 -1 -96 2 -130 22 -49 27 -65 28 -65 1z"/>
<path d="M5205 757 c-34 -23 -187 -66 -260 -73 -38 -3 -95 -13 -125 -21 -73
-21 -218 -12 -327 20 -92 27 -110 21 -34 -12 125 -54 298 -66 436 -31 76 19
81 19 93 2 7 -9 16 -28 18 -42 5 -21 24 -34 107 -73 157 -72 181 -79 290 -78
54 0 114 5 135 10 20 6 87 15 149 21 111 10 186 22 353 56 86 17 125 34 80 34
-14 0 -90 -12 -170 -26 -82 -15 -192 -28 -254 -29 -69 -2 -111 -7 -116 -14 -4
-7 -33 -15 -66 -18 -54 -6 -58 -5 -45 10 7 9 29 27 49 39 31 19 52 23 142 24
58 1 141 9 185 18 44 9 108 16 143 16 59 0 82 13 46 27 -9 3 -98 -2 -199 -12
-135 -13 -195 -15 -231 -8 -27 6 -64 11 -82 11 -41 1 -199 83 -249 128 -42 39
-42 39 -68 21z m-18 -61 c-20 -18 -57 -44 -81 -57 -37 -19 -47 -21 -60 -10
-30 25 -16 39 72 69 48 17 92 31 97 31 6 0 -7 -15 -28 -33z m81 -8 c21 -21 13
-34 -30 -54 -22 -10 -58 -31 -79 -46 -37 -27 -38 -27 -61 -9 l-23 19 35 21
c19 11 55 34 80 50 51 33 61 36 78 19z m82 -66 l22 -18 -46 -41 c-25 -22 -46
-48 -46 -57 0 -26 -28 -19 -68 18 -43 40 -40 45 38 90 54 30 71 32 100 8z
m116 -42 l27 -11 -34 -33 c-19 -18 -40 -41 -47 -50 -8 -9 -21 -15 -30 -12 -9
2 -30 7 -46 11 l-29 6 37 25 c20 14 36 29 36 34 0 13 30 40 45 40 8 0 26 -5
41 -10z"/>
<path d="M2940 726 c0 -22 42 -67 102 -109 56 -38 177 -84 308 -116 41 -11
112 -33 158 -50 101 -38 288 -59 368 -42 59 12 255 80 269 92 15 15 -10 11
-138 -23 -108 -29 -136 -32 -247 -31 -104 1 -134 5 -180 23 -30 12 -75 29
-100 37 -25 8 -85 27 -135 44 -49 16 -107 34 -128 39 -59 16 -150 65 -202 110
-48 41 -75 51 -75 26z"/>
<path d="M8365 727 c13 -8 73 -13 170 -15 197 -3 170 13 -35 22 -125 5 -151 3
-135 -7z"/>
<path d="M2780 700 c-128 -42 -258 -76 -423 -110 -117 -24 -184 -31 -325 -36
-167 -6 -184 -5 -292 20 -127 29 -139 30 -125 17 34 -31 274 -71 427 -71 148
0 485 62 637 117 36 13 99 34 140 46 41 12 76 28 79 35 6 18 -23 14 -118 -18z"/>
<path d="M7373 710 c-109 -49 -369 -99 -564 -109 -145 -8 -175 -14 -164 -32 8
-12 226 -11 285 1 25 5 95 19 155 29 61 11 135 29 165 40 61 21 140 36 140 27
0 -9 -42 -24 -160 -56 -178 -48 -259 -61 -414 -67 -109 -5 -143 -9 -125 -16
64 -24 331 10 566 74 162 43 186 47 181 23 -4 -23 -32 -37 -128 -63 -172 -46
-270 -64 -360 -69 -52 -2 -99 -8 -104 -12 -5 -5 11 -14 35 -20 24 -6 55 -15
69 -20 42 -16 157 -30 305 -36 157 -7 739 20 795 36 59 18 181 16 217 -3 36
-19 183 -36 388 -44 149 -5 225 6 306 47 48 25 99 77 99 101 0 23 2 23 -74 2
-49 -15 -99 -18 -258 -17 -109 0 -198 -3 -198 -8 0 -16 90 -31 225 -37 l140
-7 -45 -14 c-93 -31 -431 -7 -568 39 -80 27 -81 27 -252 3 -241 -34 -790 -64
-790 -43 0 6 8 14 18 17 57 20 143 66 176 94 l38 34 56 -13 c209 -48 266 -52
303 -22 13 11 21 22 18 25 -3 3 -61 17 -130 31 -156 32 -183 40 -240 76 -53
34 -51 33 -106 9z m-103 -197 c-39 -17 -133 -43 -155 -43 -8 0 -15 4 -15 9 0
5 37 18 83 29 101 24 136 26 87 5z"/>
<path d="M9170 625 c7 -9 15 -13 17 -11 7 7 -7 26 -19 26 -6 0 -6 -6 2 -15z"/>
<path d="M11369 545 c-3 -2 -79 -9 -170 -15 -216 -13 -367 -26 -514 -42 -66
-7 -180 -12 -252 -11 -124 2 -136 3 -183 29 -28 15 -53 24 -56 21 -27 -27 139
-87 240 -87 34 0 88 5 120 11 32 6 106 14 165 19 58 5 162 13 231 19 69 6 202
15 295 21 191 13 228 18 219 31 -5 9 -87 13 -95 4z"/>
<path d="M2870 474 c-66 -28 -212 -56 -262 -49 -29 4 -48 3 -48 -3 0 -13 32
-21 120 -28 62 -5 86 -2 135 16 133 47 120 46 159 12 60 -53 175 -103 258
-113 156 -18 273 -6 392 40 50 20 23 21 -85 5 -145 -22 -325 -15 -394 15 -70
31 -103 50 -153 88 -48 36 -70 40 -122 17z"/>
<path d="M9390 450 c0 -14 27 -26 122 -56 79 -25 90 -26 225 -20 78 3 148 9
157 12 42 16 3 20 -145 16 -164 -5 -246 7 -319 45 -30 15 -40 16 -40 3z"/>
<path d="M4690 435 c0 -9 76 -44 144 -66 55 -17 81 -20 132 -15 119 12 116 23
-6 29 -91 4 -130 10 -184 31 -69 26 -86 30 -86 21z"/>
<path d="M9424 366 c-3 -8 0 -27 8 -42 37 -77 135 -101 453 -114 266 -11 349
-20 444 -51 68 -23 65 -23 255 10 105 19 146 37 132 60 -10 16 -41 14 -180 -9
-113 -20 -125 -20 -186 -5 -38 9 -181 22 -344 31 -383 21 -480 40 -528 104
-24 32 -45 39 -54 16z"/>
<path d="M2465 309 c-44 -21 -74 -39 -68 -39 22 0 141 51 154 66 17 21 2 16
-86 -27z"/>
<path d="M4456 271 c-7 -11 22 -37 57 -50 41 -16 196 -13 253 4 72 22 98 19
177 -20 39 -19 77 -35 84 -35 7 0 30 -11 51 -25 26 -17 68 -29 144 -42 104
-16 112 -16 202 2 156 30 161 47 11 35 -151 -11 -273 6 -349 51 -17 9 -70 34
-118 53 -97 40 -170 47 -231 21 -46 -19 -169 -19 -222 0 -47 17 -52 18 -59 6z"/>
<path d="M2200 241 c0 -4 11 -6 25 -3 14 2 25 6 25 8 0 2 -11 4 -25 4 -14 0
-25 -4 -25 -9z"/>
<path d="M2028 233 c6 -2 18 -2 25 0 6 3 1 5 -13 5 -14 0 -19 -2 -12 -5z"/>
<path d="M6360 206 c47 -49 372 -46 388 3 4 11 -1 12 -19 5 -31 -11 -281 -11
-339 -1 -41 8 -44 8 -30 -7z"/>
<path d="M8865 110 c18 -29 136 -70 242 -85 59 -8 116 -18 126 -21 43 -13 187
40 166 61 -3 2 -40 -1 -84 -6 -95 -12 -252 3 -329 31 -72 27 -131 36 -121 20z"/>
<path d="M7986 91 c-15 -23 64 -52 206 -76 106 -19 166 -15 258 15 30 10 83
26 118 35 34 10 65 22 68 26 7 13 5 12 -161 -22 -176 -37 -260 -36 -390 6 -91
28 -92 28 -99 16z"/>
</g>
</svg>
