<?xml version="1.0" standalone="no"?>
<!DOCTYPE svg PUBLIC "-//W3C//DTD SVG 20010904//EN"
 "http://www.w3.org/TR/2001/REC-SVG-20010904/DTD/svg10.dtd">
<svg version="1.0" xmlns="http://www.w3.org/2000/svg"
 width="1280.000000pt" height="960.000000pt" viewBox="0 0 1280.000000 960.000000"
 preserveAspectRatio="xMidYMid meet">
<metadata>
Created by potrace 1.15, written by Peter Selinger 2001-2017
</metadata>
<g transform="translate(0.000000,960.000000) scale(0.100000,-0.100000)"
fill="#607d8b" stroke="none">
<path d="M9091 8794 c0 -11 3 -14 6 -6 3 7 2 16 -1 19 -3 4 -6 -2 -5 -13z"/>
<path d="M6873 8720 c0 -25 2 -35 4 -22 2 12 2 32 0 45 -2 12 -4 2 -4 -23z"/>
<path d="M9082 8650 c0 -19 2 -27 5 -17 2 9 2 25 0 35 -3 9 -5 1 -5 -18z"/>
<path d="M9070 8553 c0 -76 -7 -90 -48 -98 -67 -13 -212 -73 -268 -111 -32
-22 -78 -68 -108 -109 -161 -216 -275 -383 -393 -575 -73 -118 -136 -220 -140
-227 -5 -6 -278 -105 -608 -219 -348 -120 -614 -217 -632 -231 l-33 -24 0 223
c0 123 5 396 10 608 19 779 20 814 10 645 -12 -231 -29 -782 -36 -1178 l-6
-357 -54 -105 c-33 -63 -63 -106 -74 -110 -11 -3 -53 -52 -94 -109 -75 -102
-76 -103 -161 -141 l-85 -38 -188 -206 c-246 -270 -464 -528 -481 -569 -8 -18
-11 -46 -7 -63 5 -28 -7 -46 -159 -227 l-166 -196 -190 -103 c-880 -475 -1611
-920 -2089 -1271 -223 -164 -539 -423 -672 -550 -95 -91 -98 -93 -120 -78 -12
9 -38 16 -58 16 -33 0 -49 -14 -231 -203 -255 -264 -430 -473 -567 -678 -150
-225 -248 -423 -297 -602 -43 -158 -19 -126 -269 -350 -71 -64 -135 -129 -141
-144 -10 -23 -9 -35 8 -70 16 -33 29 -45 66 -59 25 -9 69 -27 98 -40 76 -34
112 -24 371 101 l224 108 101 4 102 5 -30 -25 c-242 -200 -284 -247 -285 -315
0 -103 117 -137 284 -83 34 11 157 38 275 61 l213 41 72 -16 c435 -99 586
-128 726 -135 459 -25 397 -27 673 24 137 26 256 50 265 55 10 5 60 16 112 26
217 38 297 57 533 124 136 39 388 118 559 176 l312 105 460 244 c254 134 513
270 576 301 63 32 286 160 495 285 l380 228 1248 1046 c1108 929 1633 1383
1967 1701 56 54 73 61 175 72 58 6 73 16 92 61 8 20 20 32 33 32 10 0 31 11
46 25 15 14 53 40 83 57 172 98 203 124 318 265 62 76 115 150 119 166 4 18 0
37 -10 52 -9 13 -16 38 -16 55 0 18 -11 45 -25 64 l-24 32 59 53 c33 29 60 59
60 66 0 20 -38 37 -170 78 -199 62 -473 126 -851 198 l-167 31 220 216 c121
119 229 233 239 254 25 49 25 110 0 132 -10 9 -34 21 -54 27 l-35 9 44 168
c24 92 45 173 47 181 2 12 -17 26 -61 48 -2 0 41 153 96 340 107 361 108 368
73 463 -29 79 -147 130 -417 181 -372 69 -890 100 -1260 74 l-61 -4 5 70 c2
38 2 69 -2 69 -3 0 -6 -21 -6 -47z m550 -194 c455 -29 908 -108 983 -170 29
-24 32 -32 32 -80 -1 -51 -7 -64 -130 -264 -71 -115 -150 -248 -175 -295 -28
-53 -51 -84 -60 -83 -8 1 -94 13 -190 27 -242 36 -605 81 -855 106 -115 12
-213 25 -216 29 -4 3 4 128 17 276 13 149 26 314 30 367 6 77 10 98 23 102 23
6 357 -3 541 -15z m-570 -16 c0 -16 -14 -172 -30 -348 -16 -176 -30 -330 -30
-342 0 -22 -3 -23 -97 -23 -55 0 -123 -7 -153 -15 -30 -8 -60 -15 -65 -15 -6
0 39 147 99 327 l109 327 57 58 c41 42 63 58 83 58 23 0 27 -4 27 -27z m-33
-775 c-3 -8 -6 -5 -6 6 -1 11 2 17 5 13 3 -3 4 -12 1 -19z m450 -60 c-3 -8 -6
-5 -6 6 -1 11 2 17 5 13 3 -3 4 -12 1 -19z m570 -80 c-3 -8 -6 -5 -6 6 -1 11
2 17 5 13 3 -3 4 -12 1 -19z m20 -40 c-3 -7 -5 -2 -5 12 0 14 2 19 5 13 2 -7
2 -19 0 -25z m-57 -103 c-13 -47 -25 -83 -27 -81 -2 2 6 42 18 90 13 47 25 84
27 81 2 -2 -6 -42 -18 -90z m-40 -132 c-11 -17 -11 -17 -6 0 3 10 6 24 7 30 0
9 2 9 5 0 3 -7 0 -20 -6 -30z m37 15 c-3 -8 -6 -5 -6 6 -1 11 2 17 5 13 3 -3
4 -12 1 -19z m668 -1003 l50 -15 -44 5 c-24 3 -51 10 -60 15 -23 14 -3 12 54
-5z m399 -97 c49 -14 76 -33 31 -22 -46 11 -102 33 -86 33 7 1 32 -4 55 -11z
m-5804 -1033 c0 -3 -49 -65 -110 -137 -60 -73 -138 -173 -172 -222 -61 -87
-67 -92 -173 -153 -61 -34 -113 -62 -118 -63 -8 0 -84 160 -93 196 -6 23 23
41 471 286 170 93 195 105 195 93z m-660 -486 c25 -56 46 -105 48 -109 2 -4
-102 -72 -230 -151 -128 -78 -286 -178 -350 -221 l-117 -78 -55 103 c-30 56
-57 109 -60 117 -7 17 93 81 439 285 110 65 214 126 230 136 17 10 35 19 40
19 6 0 30 -46 55 -101z m-745 -465 c53 -101 58 -116 43 -124 -43 -25 -446
-317 -542 -394 -60 -47 -112 -86 -115 -86 -6 0 -153 212 -159 229 -5 15 135
116 395 287 131 86 254 167 273 180 19 12 37 23 40 23 3 1 32 -51 65 -115z
m-735 -513 c39 -58 74 -110 76 -116 3 -7 -12 -25 -33 -41 -20 -15 -81 -68
-135 -116 -55 -49 -104 -85 -111 -82 -17 6 -200 -174 -191 -188 6 -9 -123
-148 -137 -148 -4 0 -65 48 -134 107 l-127 107 83 79 c189 177 618 523 630
509 3 -4 39 -54 79 -111z m-866 -480 c3 -4 -6 -19 -21 -32 -61 -57 -374 -422
-438 -511 -38 -54 -73 -98 -78 -98 -7 0 -43 22 -76 46 -8 6 219 262 379 427
143 148 177 177 200 177 16 0 31 -4 34 -9z m249 -205 c26 -21 47 -43 47 -47 0
-10 -111 -152 -172 -221 -23 -25 -94 -128 -158 -228 -64 -100 -120 -182 -124
-183 -10 0 -324 202 -331 213 -14 23 262 366 448 557 l80 82 81 -66 c45 -37
102 -85 129 -107z m-831 -471 c16 -11 15 -15 -11 -51 -105 -142 -341 -572
-341 -622 0 -12 -9 -11 -80 8 -20 6 -24 12 -22 35 6 53 153 327 269 501 l116
174 26 -16 c14 -10 34 -22 43 -29z m220 -141 c90 -59 167 -110 171 -114 4 -4
-28 -81 -73 -171 -47 -96 -94 -211 -115 -278 -19 -62 -35 -115 -37 -117 -2 -1
-108 25 -236 59 -272 72 -251 45 -169 227 61 135 275 500 293 500 2 0 76 -48
166 -106z m-636 -575 c35 -9 44 -15 39 -28 -4 -9 -20 -68 -36 -131 -16 -63
-35 -121 -43 -128 -7 -7 -84 -75 -171 -150 -87 -75 -163 -146 -169 -157 -6
-11 -12 -22 -13 -23 -1 -2 -15 -1 -33 3 -23 5 -34 16 -45 42 -8 20 -15 38 -15
42 0 4 77 76 171 161 94 85 179 166 189 180 10 14 29 65 41 113 13 48 27 87
32 87 4 0 28 -5 53 -11z m329 -89 c121 -33 225 -62 230 -64 13 -4 -5 -192 -20
-217 -8 -14 -41 -18 -200 -26 l-190 -10 -239 -106 c-132 -59 -241 -105 -242
-104 -6 6 18 29 161 151 197 169 200 172 225 281 26 113 40 155 49 155 4 0
106 -27 226 -60z m-380 -475 c-160 -78 -263 -119 -239 -96 9 9 408 189 419
189 6 0 -75 -42 -180 -93z m509 -181 c-84 -60 -140 -78 -163 -50 -16 19 7 32
109 62 103 31 111 29 54 -12z"/>
</g>
</svg>
